<?xml version="1.0" standalone="no"?>
<!DOCTYPE svg PUBLIC "-//W3C//DTD SVG 20010904//EN"
 "http://www.w3.org/TR/2001/REC-SVG-20010904/DTD/svg10.dtd">
<svg version="1.0" xmlns="http://www.w3.org/2000/svg"
 width="900.000000pt" height="881.000000pt" viewBox="0 0 900.000000 881.000000"
 preserveAspectRatio="xMidYMid meet">
<metadata>
Created by potrace 1.16, written by Peter Selinger 2001-2019
</metadata>
<g transform="translate(0.000000,881.000000) scale(0.100000,-0.100000)"
fill="#000000" stroke="none">
<path d="M3750 8574 c-140 -23 -207 -47 -270 -101 -33 -27 -34 -27 -229 -34
-200 -8 -232 -12 -387 -50 -191 -47 -479 -164 -872 -356 -129 -63 -166 -66
-237 -21 -58 36 -160 75 -234 88 -98 18 -324 15 -396 -5 -144 -39 -167 -95
-161 -395 3 -169 6 -194 34 -295 82 -290 204 -504 326 -567 62 -32 161 -48
308 -48 196 -2 253 10 396 77 92 43 182 66 182 46 0 -6 -14 -16 -31 -23 -141
-59 -353 -267 -415 -406 -51 -116 -54 -418 -5 -529 51 -115 238 -173 526 -161
77 3 154 8 170 11 197 37 264 56 371 107 108 51 167 132 194 263 17 83 24 92
86 122 38 18 75 48 126 105 60 67 74 77 83 65 6 -9 19 -92 28 -185 19 -194 45
-290 107 -396 23 -40 40 -81 40 -99 0 -34 -74 -160 -165 -282 -52 -69 -96
-147 -110 -195 -4 -14 -26 -65 -50 -115 -107 -226 -117 -262 -119 -440 -2
-242 9 -289 192 -805 23 -63 55 -153 71 -200 34 -94 36 -127 18 -281 -12 -98
-15 -109 -49 -150 -43 -53 -66 -125 -75 -236 l-6 -83 -68 0 -69 0 0 -90 0 -89
66 0 c36 1 67 -1 69 -3 7 -8 14 -189 8 -218 -7 -36 -131 -169 -193 -207 -45
-27 -161 -66 -279 -94 -116 -26 -116 -27 -124 103 -6 86 -34 225 -56 273 -5
11 -19 45 -30 75 -30 76 -74 143 -113 173 -49 38 -177 61 -297 54 -205 -11
-265 -46 -294 -172 -24 -102 -27 -145 -27 -300 0 -198 10 -256 69 -385 24 -52
26 -83 9 -98 -7 -5 -71 -22 -141 -36 -168 -35 -391 -130 -582 -248 -48 -30
-121 -64 -184 -84 -57 -19 -146 -57 -198 -84 -53 -28 -99 -50 -104 -50 -19 0
-107 -45 -213 -109 -84 -50 -141 -95 -245 -193 -74 -71 -149 -150 -166 -176
l-30 -47 -3 -254 c-2 -140 -1 -265 2 -277 10 -38 56 -84 115 -114 31 -15 65
-41 76 -57 69 -100 152 -145 297 -162 101 -12 516 -25 653 -20 137 4 373 4
600 -2 197 -4 278 1 361 25 27 8 69 17 94 21 25 4 52 8 60 10 8 1 38 6 65 10
28 4 59 9 70 11 48 7 186 24 250 30 39 3 72 8 75 9 6 3 66 10 173 20 123 11
315 18 541 19 269 3 310 10 401 71 53 36 75 41 200 50 133 9 177 18 306 64 51
18 170 45 295 66 294 50 395 73 504 112 82 30 215 53 320 55 37 1 165 31 207
49 26 11 75 40 109 64 63 45 101 58 212 70 103 10 228 51 367 120 81 40 230
99 395 156 394 135 401 138 549 164 178 31 217 44 289 94 33 23 101 58 152 77
51 19 116 47 144 62 96 54 131 74 146 87 8 7 55 34 104 60 107 56 158 91 209
143 21 22 52 46 70 55 18 8 61 29 97 46 180 84 223 185 214 511 -4 181 -19
268 -55 326 -28 47 -27 46 -131 136 -91 80 -197 140 -323 184 -108 37 -109 38
-84 85 11 22 24 63 29 92 11 56 14 71 29 132 14 54 26 174 26 260 0 169 -39
435 -74 508 -11 23 -58 81 -103 129 -89 94 -149 128 -252 143 -27 4 -73 17
-102 30 -78 35 -157 49 -274 49 -114 0 -158 -5 -237 -29 -64 -19 -94 -52 -144
-161 -31 -66 -44 -84 -72 -97 -19 -10 -39 -17 -44 -17 -5 0 -38 -12 -73 -26
-107 -43 -335 -82 -357 -60 -4 3 -10 62 -14 129 -8 144 -12 166 -51 317 -46
176 -85 287 -228 644 -106 265 -130 336 -126 361 11 56 62 118 159 193 114 88
243 219 327 333 66 90 92 108 156 109 58 0 147 18 234 46 41 14 107 32 145 41
39 8 84 22 100 31 46 23 271 257 293 305 11 23 27 65 35 92 9 28 35 108 57
178 51 161 60 224 55 412 -4 148 -8 172 -58 350 -14 50 -30 122 -37 160 -17
92 -41 153 -94 234 -53 81 -67 96 -133 148 -57 45 -129 76 -232 99 -87 20
-131 35 -221 77 -123 58 -177 68 -370 74 -211 6 -274 -2 -446 -61 -171 -58
-233 -86 -302 -139 -67 -52 -141 -87 -179 -87 -19 1 -45 16 -78 46 -70 64
-178 114 -300 139 -133 28 -404 25 -520 -6 -44 -12 -125 -51 -168 -81 -15 -11
-34 -18 -41 -15 -8 3 -25 40 -39 82 -14 41 -40 94 -58 116 -38 48 -122 93
-204 109 -60 11 -347 21 -395 14z m298 -289 c50 -20 88 -62 101 -113 16 -57
48 -271 66 -432 9 -80 18 -164 21 -188 l5 -44 58 85 c164 241 342 416 490 485
128 59 337 16 459 -93 49 -44 72 -94 72 -157 0 -13 16 -57 36 -98 41 -85 48
-148 20 -179 -20 -22 -61 -32 -90 -21 -15 5 -30 0 -51 -16 -17 -13 -56 -35
-87 -49 -63 -29 -95 -24 -123 19 -13 19 -14 32 -7 60 10 34 9 35 -33 55 -24
11 -52 32 -63 46 l-20 25 -81 -92 c-45 -51 -105 -127 -135 -168 -53 -74 -130
-210 -123 -217 2 -2 82 -28 176 -57 164 -51 175 -53 207 -40 18 8 49 14 69 14
25 0 35 4 35 15 0 29 47 65 85 65 36 0 53 -12 90 -62 l20 -27 72 11 c70 11
121 6 176 -17 17 -7 18 -3 12 61 -4 38 -2 95 3 126 8 52 7 60 -11 75 -31 28
-67 114 -67 161 0 78 57 154 134 179 23 7 33 19 44 53 22 65 112 152 185 179
32 11 67 21 78 21 12 0 27 12 37 30 9 16 36 39 59 50 23 10 44 24 48 29 9 16
94 51 150 63 28 6 73 21 102 33 78 35 149 47 213 36 72 -12 159 -45 229 -87
43 -26 83 -39 163 -53 58 -10 127 -28 153 -40 70 -31 153 -121 205 -224 41
-81 44 -93 46 -175 2 -78 6 -95 40 -167 36 -75 39 -86 39 -170 0 -84 -3 -95
-38 -167 -25 -51 -40 -101 -46 -145 -15 -117 -49 -172 -163 -259 -33 -26 -58
-53 -58 -64 0 -26 -63 -78 -105 -86 -20 -3 -61 -4 -93 -2 -50 4 -59 2 -74 -17
-35 -44 -73 -54 -223 -54 -122 0 -141 -2 -150 -17 -99 -172 -282 -373 -446
-492 -72 -52 -89 -70 -103 -107 -19 -48 -62 -91 -104 -102 -14 -3 -50 -31 -80
-62 l-54 -55 23 -43 c18 -32 30 -43 52 -45 28 -3 33 -12 188 -398 191 -474
229 -579 279 -775 53 -208 58 -258 30 -323 -32 -75 -106 -138 -325 -278 -158
-101 -701 -436 -797 -493 -19 -11 -28 -24 -28 -41 0 -18 -21 -44 -75 -95 -51
-48 -75 -78 -75 -93 0 -22 45 -71 65 -72 14 0 91 -80 99 -103 3 -10 -5 -73
-19 -139 -14 -66 -25 -121 -25 -122 0 0 69 -1 153 0 125 1 164 5 217 22 105
33 179 45 247 38 58 -6 99 -2 409 44 39 6 117 29 173 50 96 38 108 40 209 40
70 0 140 7 199 20 86 19 311 37 418 33 28 0 75 -11 104 -23 68 -26 195 -36
276 -21 33 6 110 14 170 17 67 4 124 12 145 22 32 14 38 14 80 -3 42 -17 72
-20 153 -14 21 2 60 -11 113 -38 45 -22 97 -46 115 -52 42 -13 109 -67 109
-86 0 -8 19 -25 43 -39 23 -14 58 -41 77 -61 35 -36 37 -44 31 -145 -1 -14 2
-46 5 -72 5 -39 2 -54 -17 -84 -29 -48 -122 -107 -194 -123 -52 -12 -65 -21
-134 -90 -52 -53 -95 -86 -136 -105 -99 -47 -121 -59 -182 -102 -94 -67 -233
-134 -276 -134 -42 0 -76 -14 -94 -40 -7 -9 -36 -33 -65 -53 -54 -36 -98 -48
-347 -93 -41 -7 -77 -18 -82 -25 -4 -7 -14 -9 -23 -6 -18 7 -100 -20 -306
-103 -162 -65 -252 -99 -283 -105 -41 -9 -67 -19 -177 -70 -150 -69 -194 -83
-310 -100 -131 -18 -220 -44 -250 -73 -83 -80 -167 -105 -340 -104 l-125 0
-135 -54 c-95 -37 -159 -57 -215 -64 -73 -9 -155 -23 -290 -51 -27 -6 -89 -14
-137 -18 -73 -7 -100 -14 -170 -50 -72 -36 -97 -43 -183 -51 -55 -6 -143 -8
-195 -5 l-95 6 -30 -43 c-71 -100 -201 -120 -335 -53 -40 20 -80 34 -89 31 -9
-2 -55 -18 -103 -35 -109 -38 -196 -47 -291 -32 -76 13 -108 9 -197 -25 -32
-12 -80 -18 -165 -19 -96 -2 -138 -7 -209 -29 -99 -29 -134 -31 -190 -11 -37
13 -40 13 -75 -15 -57 -46 -144 -64 -244 -50 -45 6 -166 15 -268 19 -102 5
-201 14 -220 21 -33 12 -38 11 -78 -16 -62 -41 -142 -45 -193 -10 -36 24 -41
25 -120 16 -186 -20 -278 -23 -325 -10 -63 18 -118 73 -133 132 l-12 46 -56 4
c-49 4 -59 9 -94 46 -29 32 -38 49 -38 77 0 52 51 144 105 190 26 22 63 57 83
79 97 102 186 175 223 183 16 3 48 23 72 44 23 22 52 39 65 39 12 0 39 8 60
19 20 10 55 24 77 31 22 7 58 27 80 45 53 42 79 55 107 54 28 -2 113 18 142
33 11 6 57 35 101 64 44 29 125 73 180 99 55 26 138 65 184 87 70 34 98 42
185 50 101 10 216 42 216 60 0 5 15 27 32 48 46 53 88 141 88 182 0 57 -28
137 -88 248 -105 197 -96 170 -84 273 21 166 48 235 88 220 28 -11 113 -161
147 -263 49 -142 64 -263 47 -378 -16 -109 -26 -212 -22 -212 2 0 16 7 32 15
30 16 164 45 300 65 41 6 104 19 140 29 36 10 99 26 140 36 41 10 120 33 175
51 84 27 111 41 169 90 77 65 172 172 221 248 l33 51 -19 95 c-31 166 -51 476
-31 507 12 18 79 40 168 53 113 17 110 14 65 62 -93 100 -145 179 -137 206 4
11 37 49 75 86 l69 66 -93 233 c-96 240 -219 583 -275 767 -17 58 -36 109 -41
115 -25 26 -7 85 90 281 67 137 96 206 90 215 -27 42 3 94 47 83 15 -4 25 7
48 48 42 76 225 354 275 416 34 43 47 53 68 50 16 -2 30 4 37 15 9 15 -8 35
-120 145 -106 103 -138 140 -166 197 -53 103 -59 133 -67 320 l-8 170 -61 200
c-33 110 -71 237 -82 282 l-22 83 -96 -128 c-198 -264 -419 -521 -460 -536
-18 -6 -33 -4 -52 8 -36 21 -46 9 -55 -69 -23 -209 -39 -243 -138 -290 -138
-66 -359 -114 -462 -100 -108 14 -195 75 -195 136 0 84 153 277 300 378 67 46
145 86 185 95 17 4 39 20 52 38 21 30 21 31 2 62 -10 17 -19 40 -19 51 0 22
231 306 489 601 148 169 169 198 161 215 -8 15 -17 18 -38 13 -99 -24 -492
-208 -872 -408 -79 -42 -148 -76 -151 -76 -4 0 -21 12 -38 26 -28 24 -34 25
-68 13 -20 -6 -57 -27 -82 -47 -109 -84 -246 -125 -335 -101 -110 29 -239 251
-312 538 -41 160 -42 214 -3 243 24 18 28 19 100 2 147 -33 243 -90 391 -232
108 -104 135 -114 130 -48 -2 21 3 44 9 53 7 8 133 74 279 147 641 319 1014
440 1222 396 63 -14 91 -33 131 -90 l18 -25 40 45 c22 25 65 75 95 112 53 64
83 83 159 102 39 10 182 -3 223 -19z m3397 -4031 c20 -8 45 -56 45 -87 0 -13
-11 -38 -25 -57 -14 -19 -25 -36 -24 -39 0 -3 10 7 22 24 51 70 84 95 121 95
29 0 38 -5 45 -22 5 -13 4 -34 -1 -47 -5 -13 -7 -25 -6 -26 2 -1 13 -8 26 -14
21 -11 22 -10 16 14 -10 42 19 75 66 75 32 0 43 -5 57 -26 16 -24 16 -29 1
-54 -15 -27 -15 -27 27 -48 24 -11 56 -38 72 -58 25 -33 28 -45 26 -103 -1
-36 -2 -75 -3 -86 -3 -32 3 -48 28 -68 45 -38 18 -138 -47 -170 -17 -9 -29
-11 -26 -6 3 5 -1 6 -9 3 -9 -3 -16 -15 -16 -26 0 -10 -4 -17 -9 -14 -5 3 -11
-1 -15 -9 -13 -34 -55 -11 -66 36 -7 29 -8 30 -9 8 -1 -36 22 -63 55 -65 21
-1 29 -6 28 -18 -1 -9 11 -27 27 -38 38 -29 39 -60 2 -57 -16 2 -35 9 -43 15
-8 7 -28 17 -43 23 -22 9 -27 16 -23 36 3 14 1 23 -3 20 -5 -2 -14 9 -21 25
-12 29 -11 45 6 151 14 84 -47 182 -132 215 -58 22 -140 15 -218 -20 -45 -20
-87 -54 -180 -145 -93 -91 -131 -122 -164 -131 -23 -7 -42 -17 -42 -22 0 -5
-6 -6 -12 -2 -10 6 -10 4 0 -7 14 -16 16 -33 2 -24 -5 3 -10 2 -10 -4 0 -8
-50 -23 -80 -24 -13 -1 -29 -27 -32 -53 -4 -36 -61 -76 -240 -169 -146 -76
-227 -106 -260 -98 -95 23 -238 261 -241 401 -1 52 1 57 35 87 45 39 313 177
389 200 54 17 57 17 101 -3 27 -12 53 -32 64 -51 19 -32 30 -37 53 -22 9 6 10
11 2 15 -20 13 -13 64 11 80 25 18 58 21 58 6 0 -5 -7 -7 -15 -4 -25 10 -44
-13 -36 -44 6 -22 13 -27 37 -24 16 1 37 2 47 3 13 0 17 9 17 41 0 25 7 49 17
60 21 24 65 23 88 -2 23 -26 29 -25 43 5 17 37 70 65 122 65 25 0 52 6 61 13
17 13 49 69 49 86 0 28 46 127 72 157 30 34 70 44 113 28z m0 -852 c12 -86 35
-150 71 -197 19 -26 33 -53 30 -60 -11 -30 -203 -35 -367 -9 -60 9 -109 21
-109 27 0 12 80 86 93 87 4 0 13 4 20 10 7 5 53 41 102 79 50 38 101 80 114
94 13 15 27 24 32 21 4 -2 11 -26 14 -52z m-1581 -49 c4 -16 9 -41 12 -58 6
-35 60 -158 86 -197 10 -14 18 -37 18 -51 0 -22 -7 -27 -52 -38 -29 -7 -93
-12 -143 -11 -62 1 -94 -3 -105 -12 -8 -8 -30 -16 -47 -18 -27 -4 -33 -1 -33
14 0 17 -11 18 -145 18 -80 0 -145 4 -145 9 0 4 5 22 11 39 9 25 43 50 195
144 101 62 210 129 242 150 71 45 98 48 106 11z m-2699 -369 c27 -11 38 -53
20 -80 -14 -22 -14 -26 1 -49 16 -24 16 -25 -8 -25 -16 0 -29 9 -38 25 -7 14
-17 25 -22 25 -4 0 -8 -11 -8 -25 0 -18 -5 -25 -20 -25 -18 0 -20 7 -20 80 l0
80 39 0 c22 0 47 -3 56 -6z"/>
<path d="M3793 8262 c-32 -11 -62 -31 -80 -52 -15 -19 -63 -74 -107 -122 l-78
-88 -39 55 c-34 46 -47 57 -91 70 -138 41 -358 -5 -701 -144 -180 -74 -487
-217 -662 -310 l-130 -69 3 -46 c3 -44 2 -46 -34 -61 l-37 -15 -101 98 c-149
144 -253 208 -387 236 -81 17 -99 9 -99 -43 0 -55 55 -266 96 -368 67 -168
167 -303 232 -316 77 -16 199 24 304 99 25 18 69 43 98 55 l51 22 31 -32 31
-31 71 39 c437 239 932 463 981 445 8 -4 23 -20 31 -36 18 -35 29 -18 -115
-183 -113 -129 -164 -184 -142 -150 7 11 -16 -11 -53 -49 -63 -65 -91 -110
-43 -70 20 17 20 16 -2 -9 -14 -15 -27 -25 -29 -22 -7 6 -32 -15 -32 -27 0 -5
6 -6 13 -2 6 4 3 -2 -7 -14 -23 -26 -34 -30 -15 -4 13 15 12 16 -3 3 -10 -7
-16 -17 -13 -21 6 -10 -25 -51 -35 -45 -4 3 -14 -3 -21 -12 -10 -12 -10 -14
-1 -9 24 14 11 -5 -68 -102 -44 -54 -80 -106 -80 -114 0 -8 9 -27 20 -41 26
-32 25 -34 -10 -81 -24 -31 -43 -44 -88 -58 -79 -24 -172 -86 -265 -176 -139
-135 -204 -256 -163 -301 37 -41 115 -65 206 -64 108 1 273 40 380 90 97 45
106 61 130 223 18 127 34 164 65 155 11 -3 36 -8 55 -10 33 -5 39 -1 110 82
111 128 251 301 364 453 56 74 106 136 110 138 5 2 33 -84 63 -190 29 -106 71
-249 92 -318 37 -117 39 -134 44 -280 3 -127 8 -167 26 -220 29 -84 96 -184
163 -244 29 -26 81 -75 116 -109 l64 -61 -21 -36 c-16 -29 -26 -35 -52 -35
-30 0 -39 -9 -115 -115 -45 -63 -81 -116 -79 -118 2 -2 -4 -11 -13 -20 -9 -10
-50 -72 -90 -140 -67 -111 -76 -122 -103 -122 -32 0 -34 -5 -19 -45 9 -23 4
-39 -39 -119 -69 -127 -141 -292 -141 -320 0 -37 64 -249 142 -471 85 -241
237 -636 250 -650 9 -9 -21 77 -55 158 l-16 37 132 1 c73 1 179 4 235 8 114 7
128 1 125 -48 -1 -22 0 -22 4 -3 9 45 33 21 51 -53 28 -110 85 -154 184 -141
66 9 165 54 214 98 21 19 55 40 74 48 19 7 41 18 48 23 20 15 15 -15 -13 -75
-61 -132 -116 -437 -116 -639 -1 -187 27 -313 103 -464 46 -92 61 -115 135
-206 29 -36 53 -71 53 -78 0 -6 8 -11 18 -11 11 0 27 -9 38 -21 47 -52 308
-218 322 -205 2 3 -20 17 -50 32 -324 163 -530 427 -594 764 -20 104 -15 326
11 470 37 206 111 434 144 445 47 15 167 22 242 14 89 -9 123 -5 42 5 -26 4
-60 10 -75 15 -15 5 -47 5 -75 0 -26 -6 -70 -11 -98 -13 -29 -2 -77 -16 -115
-34 -119 -57 -263 -60 -396 -11 -64 24 -158 92 -201 144 -64 77 -113 194 -113
272 0 27 3 31 18 26 11 -4 5 7 -15 30 -49 57 -45 78 34 153 68 65 73 90 7 32
l-37 -33 7 50 c7 56 39 185 55 228 l11 29 37 -32 c54 -48 109 -69 178 -70 51
-1 56 -3 35 -11 -14 -6 -64 -9 -112 -7 -61 2 -82 0 -70 -7 9 -5 51 -10 92 -10
74 1 126 17 115 36 -4 5 -2 9 4 9 5 0 17 3 26 6 11 5 7 -10 -16 -52 -25 -45
-31 -66 -25 -87 14 -59 102 -55 150 6 34 42 23 48 -15 9 -54 -55 -119 -56
-119 -1 0 39 19 74 77 146 27 32 54 66 61 75 17 22 26 77 24 154 l-1 62 47 5
c26 2 56 8 66 13 15 6 13 -1 -12 -32 -79 -99 -96 -203 -46 -294 55 -100 138
-152 255 -158 91 -5 137 14 193 79 50 59 70 125 63 213 -10 154 -120 256 -276
256 l-46 0 80 52 c94 61 162 87 227 88 44 0 49 -3 71 -37 13 -21 35 -69 48
-108 21 -62 24 -87 24 -225 -1 -127 -5 -170 -23 -236 -78 -291 -208 -543 -344
-669 -33 -30 -55 -55 -50 -55 11 0 78 64 124 118 40 48 42 48 68 -31 9 -30 9
-41 0 -52 -7 -8 -10 -15 -7 -15 11 0 373 203 465 262 89 55 232 158 279 200
21 20 21 20 3 81 -28 99 -116 320 -191 482 -63 135 -177 406 -193 461 -6 20
-2 22 49 26 71 6 183 62 259 130 l56 50 11 -29 c6 -15 28 -73 48 -128 21 -55
79 -199 128 -320 153 -373 209 -539 253 -744 27 -126 24 -186 -14 -236 -15
-19 -25 -35 -22 -35 3 0 19 19 36 42 37 51 39 110 10 254 -38 185 -93 346
-270 787 -174 435 -178 442 -207 445 -25 3 -34 13 -62 69 -30 57 -32 67 -18
75 34 18 78 62 93 89 11 23 21 29 46 29 37 0 90 51 104 101 7 26 29 49 94 97
180 134 331 292 422 444 22 37 49 70 60 74 12 3 80 6 152 6 113 0 135 2 163
19 18 11 35 28 38 38 5 16 17 18 99 17 81 -1 98 2 123 20 15 12 32 34 36 50 5
17 26 42 50 59 117 83 149 132 170 255 9 56 26 108 48 150 31 60 34 72 33 155
0 82 -3 96 -36 165 -31 65 -36 87 -40 165 -4 75 -9 101 -36 155 -78 162 -175
236 -351 265 -97 17 -126 27 -196 70 -121 74 -253 88 -377 37 -42 -17 -94 -34
-115 -38 -71 -13 -216 -92 -237 -129 -16 -28 -38 -44 -61 -45 -86 -1 -209 -96
-241 -187 -16 -44 -23 -53 -55 -62 -75 -23 -119 -81 -119 -158 0 -43 30 -110
63 -141 22 -21 22 -25 13 -98 -9 -74 1 -198 20 -248 5 -14 -2 -12 -35 12 -62
45 -103 56 -180 48 -36 -4 -76 -9 -88 -12 -18 -5 -28 3 -54 40 -25 36 -39 46
-60 46 -34 0 -59 -24 -59 -56 0 -22 -4 -24 -50 -24 -28 0 -64 -7 -81 -15 -28
-15 -37 -13 -212 41 -100 31 -189 63 -197 70 -13 13 -11 23 23 88 20 40 61
107 90 149 64 94 234 287 252 287 7 0 25 -16 39 -35 15 -19 34 -35 42 -35 8 0
29 -10 47 -22 18 -13 33 -23 35 -24 1 -1 -4 -14 -13 -30 -20 -40 -19 -51 9
-69 22 -15 28 -15 61 0 21 8 60 31 86 50 43 31 52 33 74 23 19 -8 31 -8 50 0
41 19 41 52 0 142 -20 45 -40 108 -45 140 -10 71 -19 88 -67 130 -51 45 -128
79 -223 97 -67 14 -88 14 -139 3 -98 -21 -253 -136 -373 -277 -104 -123 -110
-129 -102 -113 6 13 4 13 -10 -1 -9 -8 -18 -25 -21 -37 -6 -32 -15 -43 -27
-36 -6 4 -8 2 -4 -4 8 -13 -94 -173 -106 -166 -4 3 -8 26 -8 52 0 132 -74 651
-101 707 -33 71 -204 107 -316 67z m1229 -223 c63 -13 176 -70 209 -105 29
-30 41 -128 32 -252 -5 -78 -8 -84 -40 -112 -18 -17 -57 -42 -85 -56 -44 -22
-53 -24 -65 -12 -22 23 0 64 45 87 43 22 68 68 79 147 9 68 -12 53 -32 -23
-18 -66 -50 -113 -78 -113 -7 0 -22 6 -32 14 -18 13 -19 15 -3 33 16 18 68
128 68 144 0 26 -20 1 -53 -66 -40 -82 -65 -95 -103 -54 -15 16 -16 23 -6 37
22 30 62 117 68 150 11 55 -10 35 -39 -37 -33 -81 -56 -106 -91 -97 -52 13
-103 76 -80 99 10 9 54 -15 54 -30 0 -7 7 -13 15 -13 11 0 15 11 15 43 0 23 3
60 7 81 9 54 -13 39 -28 -19 -11 -42 -12 -43 -44 -38 -30 5 -35 2 -40 -20 -9
-34 13 -76 52 -103 l32 -21 -51 -49 c-68 -67 -156 -175 -210 -259 -54 -83
-108 -188 -108 -209 0 -25 37 -42 210 -96 91 -29 167 -53 168 -55 2 -2 -12
-20 -32 -40 -42 -42 -45 -68 -11 -91 28 -18 96 -12 116 12 50 61 26 -109 -26
-179 -20 -27 -39 -14 -195 137 -87 84 -157 142 -192 161 -57 29 -57 29 -78 10
-12 -11 -36 -47 -52 -80 -17 -33 -32 -61 -33 -63 -2 -2 -37 12 -79 32 l-76 35
0 168 c0 92 -3 184 -6 203 -5 30 2 47 53 127 102 162 175 255 293 374 109 110
211 190 255 202 37 9 144 7 197 -4z m1378 -86 c438 -105 698 -564 569 -1000
l-22 -74 -21 19 c-21 19 -59 42 -70 42 -3 0 -6 -4 -6 -10 0 -5 6 -10 13 -10
17 0 81 -67 101 -107 20 -41 21 -105 0 -144 -17 -34 -82 -68 -127 -69 -42 0
-98 27 -139 68 -21 20 -38 31 -38 25 0 -6 7 -16 15 -23 29 -24 14 -40 -77 -84
-92 -43 -164 -66 -211 -66 -22 0 -26 6 -32 47 -5 34 -16 56 -40 80 -29 29 -31
35 -17 40 53 19 111 92 112 141 0 24 -18 12 -23 -16 -3 -15 -16 -40 -28 -56
-39 -50 -75 -58 -312 -67 -251 -10 -232 -16 -328 89 -138 149 -197 362 -154
558 16 76 61 194 74 194 3 0 16 -15 29 -34 48 -71 139 -115 238 -116 164 -1
267 97 268 256 1 132 -79 247 -192 276 -51 13 -45 19 42 42 53 13 62 13 90 -1
17 -8 43 -27 59 -41 19 -19 27 -22 27 -11 0 9 -11 26 -25 39 -13 12 -22 27
-18 33 8 13 159 1 243 -20z m-385 -72 c53 -23 98 -76 124 -146 40 -107 20
-208 -55 -274 -54 -47 -112 -64 -202 -59 -55 3 -79 10 -118 33 -65 40 -110
102 -125 170 -11 48 -10 63 4 109 30 95 112 165 222 189 32 8 107 -4 150 -22z
m-4574 -116 c78 -32 167 -94 280 -197 l97 -87 4 -70 c3 -63 8 -76 46 -131 l42
-61 -48 -30 c-115 -73 -205 -100 -285 -85 -57 11 -146 142 -218 323 -54 135
-103 356 -84 375 9 9 107 -13 166 -37z m1584 -89 c-169 -63 -446 -195 -778
-373 -87 -47 -160 -83 -161 -81 -21 24 -87 130 -84 133 2 3 24 -16 48 -40 24
-25 51 -45 60 -45 9 0 111 48 226 106 115 59 270 138 344 176 212 107 337 156
405 157 21 0 2 -10 -60 -33z m590 -146 c-184 -281 -348 -502 -593 -797 -87
-106 -142 -163 -154 -163 -20 0 -98 37 -98 46 0 3 14 3 30 -1 17 -4 49 -4 71
0 65 11 74 22 479 575 83 113 198 271 257 353 58 81 107 147 109 147 2 0 -43
-72 -101 -160z m2003 81 c10 -46 9 -52 -18 -102 -15 -30 -34 -74 -40 -99 l-12
-44 -19 24 c-41 52 -51 82 -47 137 5 59 31 96 83 119 42 18 40 19 53 -35z
m-3677 -181 c11 -30 33 -77 49 -103 17 -27 30 -50 30 -52 0 -9 -85 -35 -101
-30 -41 13 -92 134 -81 192 4 23 54 56 75 50 5 -2 17 -27 28 -57z m3515 -375
c58 -24 112 -73 134 -122 30 -69 104 -167 158 -209 26 -21 51 -41 55 -45 5 -4
-31 -12 -79 -19 -67 -10 -93 -18 -110 -35 -28 -28 -61 -133 -70 -220 l-7 -65
-86 -25 c-74 -23 -157 -48 -275 -86 -28 -9 -28 -8 -12 14 9 12 49 72 89 132
134 201 177 295 177 391 0 36 5 45 36 69 38 29 40 48 2 21 -31 -22 -33 -21
-46 22 -13 42 -70 106 -122 137 -19 11 -34 25 -33 30 5 24 139 31 189 10z
m-261 -25 c113 -38 142 -56 180 -109 52 -76 44 -209 -20 -345 -57 -121 -216
-338 -423 -579 -8 -9 -13 -20 -10 -23 4 -3 52 46 108 109 56 63 111 117 123
120 12 2 138 39 279 81 142 42 262 76 268 76 11 0 13 -127 3 -232 l-6 -68
-121 -39 c-252 -82 -635 -177 -756 -188 -122 -11 -180 38 -180 152 0 104 56
193 338 534 l119 144 49 1 49 1 2 38 c1 34 -1 37 -27 37 -16 0 -36 3 -46 7
-16 6 -16 4 2 -20 10 -14 25 -25 33 -24 8 1 16 -4 18 -10 6 -16 -42 -17 -86
-2 -27 10 -31 15 -31 49 0 41 9 52 54 67 17 5 31 14 33 20 6 18 -68 -5 -94
-29 -27 -26 -43 -16 -43 27 0 32 2 34 65 55 36 12 65 26 65 31 0 12 2 12 -53
-7 -61 -21 -79 -14 -75 28 3 32 5 33 61 42 31 4 57 13 57 18 0 15 -100 0 -125
-18 -75 -55 -91 -64 -115 -64 -15 0 -33 7 -40 15 -17 21 9 57 74 102 43 29 56
33 115 33 47 0 92 -9 156 -30z m-458 -182 c73 -72 147 -135 168 -144 20 -8 65
-18 101 -21 35 -3 64 -9 64 -13 0 -4 -58 -77 -128 -162 -139 -167 -236 -293
-269 -348 -51 -85 -67 -209 -35 -270 22 -41 90 -80 140 -80 79 0 483 94 737
172 127 39 131 39 161 23 31 -16 33 -16 109 19 176 81 413 253 515 372 46 55
26 22 -40 -66 -75 -99 -243 -259 -355 -339 -109 -76 -335 -189 -465 -231 -172
-56 -377 -92 -548 -98 -161 -4 -340 9 -457 35 -80 18 -105 29 -105 46 0 7 28
46 61 87 72 89 157 258 195 385 39 131 45 355 14 504 -17 85 -62 242 -88 310
-12 30 99 -59 225 -181z m-213 89 c36 -119 58 -209 52 -214 -2 -2 -31 3 -65
12 -40 12 -62 24 -66 36 -4 10 -17 27 -31 38 -13 10 -24 25 -24 33 0 15 66
156 82 175 17 21 26 7 52 -80z m-1797 -324 c24 -13 43 -28 43 -32 0 -5 -14
-27 -30 -49 -26 -36 -36 -42 -66 -42 -49 0 -89 23 -124 72 -33 45 -38 79 -14
99 8 7 22 25 30 41 l15 29 51 -46 c28 -25 71 -58 95 -72z m1865 41 c9 -53 9
-274 -1 -250 -14 36 -24 -3 -11 -43 31 -94 -102 -411 -231 -553 l-34 -37 -120
46 c-66 25 -124 49 -128 53 -5 4 20 23 54 41 158 85 276 252 335 475 18 72 26
265 12 315 l-8 26 63 -17 c60 -17 62 -18 69 -56z m1677 3 c63 -32 86 -115 53
-190 -39 -89 -186 -217 -392 -343 -99 -60 -218 -119 -225 -112 -3 2 1 22 7 44
7 23 12 106 12 204 0 174 -12 247 -55 333 -11 21 -19 40 -17 41 2 2 75 10 163
18 205 20 422 22 454 5z m-3751 -78 c35 -73 81 -104 155 -104 l59 0 -7 -65
c-4 -36 -14 -87 -23 -115 -16 -47 -22 -52 -88 -87 -134 -70 -368 -114 -471
-89 -58 15 -113 55 -113 82 0 49 115 209 206 285 95 79 206 144 244 143 8 0
25 -22 38 -50z m3161 -77 c31 -116 32 -115 -43 -135 -35 -9 -67 -17 -70 -17
-16 0 13 163 41 233 16 40 16 40 33 19 10 -12 27 -57 39 -100z m-1230 15 c17
-21 -22 -197 -44 -197 -7 0 -18 7 -25 15 -7 8 -19 15 -26 15 -18 0 -17 9 0 73
8 29 17 69 21 89 5 36 7 36 35 27 16 -6 33 -16 39 -22z m-713 -351 c16 -33 48
-81 72 -108 35 -38 50 -48 75 -48 64 0 199 80 316 186 70 64 68 47 -3 -33 -82
-91 -242 -183 -319 -183 -26 0 -107 78 -144 140 -24 40 -63 162 -62 194 0 11
9 -4 18 -34 10 -30 31 -82 47 -114z m503 -143 c-32 -40 -184 -143 -212 -143
-21 0 -91 34 -126 61 l-24 19 28 0 c29 0 133 28 150 40 22 16 44 18 55 5 9
-11 7 -12 -12 -8 -18 4 -20 3 -8 -6 25 -18 75 -9 116 21 46 32 51 34 33 11z
m-61 -219 c80 -32 125 -57 147 -79 24 -26 45 -36 106 -49 l76 -17 61 -107 c33
-59 65 -118 72 -131 12 -23 14 -21 129 97 l116 120 60 4 c55 4 68 1 146 -38
48 -23 109 -45 136 -49 46 -6 51 -9 63 -43 8 -20 15 -45 17 -55 2 -10 10 -32
19 -49 15 -28 14 -31 -6 -53 l-22 -24 28 -83 c15 -46 27 -90 27 -99 -1 -8 -17
-48 -36 -87 l-34 -72 72 0 72 0 75 -157 c42 -87 74 -161 72 -165 -3 -4 -80
-57 -172 -119 -92 -61 -171 -115 -176 -120 -5 -5 30 -49 80 -101 132 -139 188
-208 178 -218 -11 -10 -204 -129 -289 -177 l-59 -34 -88 22 c-48 11 -88 26
-88 33 0 6 7 19 15 30 14 18 15 18 58 -3 83 -40 171 -20 237 55 32 37 32 39
28 111 -4 61 -10 81 -34 116 -17 23 -49 52 -72 65 -35 20 -40 26 -32 42 24 45
61 232 67 335 7 138 -7 225 -53 324 -25 55 -31 77 -23 87 8 9 6 22 -6 48 -24
50 -48 68 -102 73 -26 3 -77 19 -111 35 -191 90 -402 68 -567 -57 -43 -33 -48
-35 -64 -21 -24 22 -54 20 -76 -4 -14 -15 -16 -29 -11 -63 l7 -44 -39 -11
c-54 -16 -116 -73 -146 -134 -34 -69 -34 -134 -1 -207 22 -46 24 -59 15 -86
-8 -24 -19 -34 -38 -38 -24 -5 -40 7 -147 116 -66 68 -150 165 -187 217 -65
91 -154 247 -146 255 2 3 65 -2 139 -10 268 -29 389 -39 395 -32 3 3 1 65 -5
138 -12 138 -15 559 -5 559 3 0 58 -21 122 -46z m1508 -1 c-31 -62 -68 -96
-138 -128 -32 -15 -58 -29 -58 -32 0 -3 18 -3 40 1 31 5 40 3 40 -8 0 -20 -70
-78 -138 -114 -91 -47 -96 -48 -116 -6 -12 26 -14 40 -7 47 20 20 11 25 -23
16 -43 -12 -99 0 -186 39 l-64 30 54 10 c30 6 93 18 140 26 47 9 100 20 118
25 27 8 32 7 32 -7 0 -14 3 -14 18 4 9 11 58 36 107 54 50 18 115 45 145 61
30 15 56 28 58 29 1 0 -9 -21 -22 -47z m-1700 -102 l31 -19 8 -164 c4 -89 10
-196 14 -237 6 -59 4 -77 -8 -92 -16 -18 -21 -18 -181 1 -91 11 -186 20 -212
20 -27 0 -48 4 -48 8 0 5 38 70 84 145 46 75 81 138 78 141 -3 4 0 6 5 6 6 0
44 47 85 105 79 113 89 119 144 86z m737 -57 l139 -7 -102 -101 c-56 -56 -104
-96 -106 -90 -3 6 -28 51 -55 100 -67 116 -68 119 -38 111 13 -4 86 -10 162
-13z m895 -106 l31 -67 -49 -36 c-63 -46 -159 -95 -187 -95 -17 0 -30 14 -53
53 -34 59 -36 67 -16 67 28 0 172 80 205 114 19 20 35 35 36 33 1 -1 16 -32
33 -69z m-812 -243 c73 -17 144 -44 144 -55 0 -4 -12 -10 -27 -13 -16 -3 -90
-49 -167 -102 -148 -103 -193 -125 -261 -125 -55 0 -92 29 -131 104 l-29 55
24 25 c12 13 50 39 84 57 123 65 241 83 363 54z m301 -110 c44 -44 39 -61 -17
-57 -77 5 -151 -23 -282 -105 -185 -116 -285 -143 -404 -108 -80 24 -161 122
-179 218 -6 33 -4 38 19 48 23 11 29 9 52 -12 14 -13 36 -45 49 -70 13 -25 42
-62 64 -82 75 -68 147 -50 346 85 158 108 177 116 259 117 53 1 61 -2 93 -34z
m-1548 -92 c24 -53 118 -189 178 -258 l61 -69 -23 -47 c-13 -26 -23 -59 -22
-75 2 -27 0 -28 -37 -25 -54 4 -210 -9 -226 -19 -10 -6 -7 -17 13 -52 44 -75
191 -249 301 -357 l105 -103 -84 -79 c-46 -44 -100 -102 -121 -129 -21 -28
-41 -50 -45 -50 -17 0 -294 800 -305 883 -5 35 1 57 36 132 55 119 139 275
149 275 4 0 13 -12 20 -27z m686 -54 c22 -42 83 -107 116 -125 16 -8 52 -17
81 -22 l53 -7 3 -61 3 -61 -233 -5 c-128 -3 -235 -3 -237 -1 -2 1 -6 28 -9 58
-6 72 16 129 71 184 72 74 127 89 152 40z m669 -102 c112 -32 183 -198 141
-331 -23 -73 -36 -84 -72 -58 -51 35 -236 130 -328 167 -49 21 -91 39 -93 40
-7 6 39 86 70 120 68 78 157 98 282 62z m-1024 -262 c41 -41 72 -76 69 -78 -2
-2 -45 1 -96 6 -90 10 -91 11 -97 39 -6 29 25 108 42 108 4 0 41 -34 82 -75z
m600 57 c0 -10 -13 -39 -29 -64 -69 -109 -223 -128 -336 -42 -37 28 -81 91
-71 101 9 9 160 20 304 22 121 1 132 0 132 -17z m275 -85 c83 -41 172 -87 198
-104 l49 -30 -39 -32 c-100 -83 -252 -65 -350 42 -51 55 -73 105 -73 164 l0
46 33 -7 c17 -3 100 -39 182 -79z m857 -72 c16 -39 47 -120 68 -181 l38 -111
-103 -77 c-58 -42 -108 -76 -113 -76 -5 0 -29 24 -53 53 -24 28 -84 94 -134
146 -82 85 -88 95 -71 105 10 6 87 57 170 112 83 56 155 101 159 100 5 -1 22
-33 39 -71z m-1707 13 c3 -3 -12 -23 -34 -45 -71 -71 -68 -140 10 -216 27 -26
49 -55 49 -65 0 -10 7 -27 15 -38 8 -10 15 -34 15 -53 0 -83 62 -233 122 -297
17 -18 26 -34 21 -37 -4 -3 -101 -8 -215 -12 -173 -6 -208 -5 -208 6 0 8 54
68 121 135 l121 121 -107 104 c-59 57 -149 156 -199 219 -125 157 -139 177
-124 184 16 7 406 1 413 -6z m111 -10 c-24 -84 -37 -142 -44 -193 -9 -74 -27
-87 -72 -55 -35 25 -60 73 -60 118 0 45 39 94 99 125 68 34 86 35 77 5z m1183
-279 c46 -33 65 -69 76 -139 18 -129 -105 -223 -230 -176 -25 10 -47 21 -50
26 -3 4 17 50 43 101 26 52 60 122 74 157 15 34 31 62 36 62 5 0 28 -14 51
-31z m-957 -558 c61 -36 148 -55 251 -55 112 -1 111 -3 -12 -63 -53 -26 -88
-36 -126 -37 -72 -1 -103 23 -132 100 -31 85 -32 84 19 55z"/>
<path d="M6645 7667 c-4 -10 -5 -35 -2 -56 l5 -39 -63 6 c-147 11 -273 -86
-305 -235 -21 -97 30 -215 117 -271 177 -113 395 -28 434 168 l11 59 30 -15
c50 -26 41 -9 -16 30 -98 67 -172 184 -191 301 -9 49 -14 65 -20 52z m-11
-118 c15 -7 36 -34 51 -66 15 -30 52 -81 82 -114 55 -59 56 -60 50 -109 -8
-64 -36 -118 -87 -164 l-42 -38 -19 28 c-56 86 -200 198 -313 243 -31 13 -56
27 -56 33 0 21 43 90 77 124 20 20 54 45 77 55 47 21 142 25 180 8z m-234
-264 c36 -18 93 -54 127 -79 67 -51 150 -142 138 -154 -3 -4 -42 -9 -85 -10
-87 -4 -138 12 -199 63 -42 36 -91 137 -91 188 0 35 2 38 23 31 12 -3 51 -21
87 -39z"/>
<path d="M5840 7216 c-69 -14 -114 -46 -140 -96 -33 -65 -25 -124 24 -178 32
-36 61 -48 176 -72 71 -15 134 -36 194 -66 121 -60 168 -58 202 8 12 23 15 47
11 88 -9 98 -62 178 -160 241 -110 71 -210 96 -307 75z"/>
<path d="M5429 4512 l-146 -97 118 -124 118 -123 85 61 c47 35 86 67 86 72 0
10 -76 216 -102 276 l-14 31 -145 -96z"/>
<path d="M4151 4365 c-30 -9 -61 -21 -68 -27 -23 -18 -43 -64 -43 -96 0 -40
30 -64 87 -69 91 -8 90 -8 98 -64 4 -32 16 -60 31 -77 l24 -27 24 29 24 29 7
-49 c20 -150 45 -204 94 -204 40 0 54 22 60 98 l6 67 20 -40 c23 -47 50 -52
72 -15 l15 25 -20 -22 c-11 -13 -24 -23 -29 -23 -10 0 -28 32 -38 68 -12 42
-30 17 -36 -51 -6 -70 -20 -97 -49 -97 -43 0 -80 94 -80 200 0 60 -16 73 -46
35 -28 -36 -47 -24 -63 40 -20 81 -14 82 96 24 268 -142 352 -174 397 -150 31
17 46 51 46 107 0 115 -124 232 -296 279 -87 23 -266 29 -333 10z"/>
<path d="M5685 3724 c-181 -114 -413 -258 -514 -321 -101 -63 -184 -113 -186
-111 -1 2 -49 85 -106 186 -57 100 -106 182 -110 182 -8 0 72 -147 174 -320
l56 -94 -95 -89 c-51 -49 -94 -94 -94 -100 0 -7 30 -35 66 -62 120 -91 134
-105 134 -134 0 -14 -11 -79 -25 -145 -14 -65 -27 -150 -29 -190 -2 -39 -2
-52 1 -28 2 23 8 42 12 42 4 0 6 12 4 28 -3 15 7 80 21 145 39 179 40 173 -54
248 -73 57 -80 66 -80 99 0 31 9 45 73 108 56 56 73 79 70 95 -4 19 34 46 304
211 455 280 730 455 713 455 -3 0 -153 -92 -335 -205z"/>
<path d="M3959 3701 c-128 -85 -340 -262 -352 -295 -7 -18 54 -104 141 -196
33 -35 59 -67 56 -71 -2 -4 -41 -12 -86 -19 -104 -15 -208 -40 -208 -51 0 -4
15 -3 33 2 17 5 83 18 146 30 140 24 151 29 125 56 -76 77 -194 223 -194 240
0 21 230 218 345 295 122 82 143 98 133 98 -3 0 -66 -40 -139 -89z"/>
<path d="M4108 3602 c-166 -606 -210 -749 -278 -896 -124 -269 -315 -482 -644
-715 -107 -77 -129 -94 -78 -65 83 48 298 219 401 319 181 176 282 324 372
547 23 59 44 106 46 105 1 -2 -2 -32 -8 -67 -25 -155 -39 -348 -37 -520 l1
-185 8 230 c11 368 64 673 199 1145 33 118 59 220 58 227 -2 7 -20 -49 -40
-125z"/>
<path d="M2126 2711 c-11 -18 -35 -138 -41 -206 l-6 -70 65 -114 c35 -63 74
-141 86 -175 12 -34 26 -70 30 -81 8 -20 9 -20 9 1 1 34 -36 132 -84 221 -51
94 -54 105 -22 76 35 -32 61 -36 89 -13 23 17 27 18 32 4 3 -9 6 -27 6 -42 0
-25 -1 -25 -15 -6 -20 26 -19 5 2 -42 l17 -39 6 55 c11 96 -36 248 -116 373
-45 69 -49 73 -58 58z"/>
<path d="M6210 2580 c-6 -4 -58 -5 -115 -2 -104 5 -104 5 -133 -24 -15 -16
-33 -37 -39 -48 -16 -28 -89 -14 -97 20 -8 32 -55 54 -115 54 -59 0 -93 -12
-133 -45 l-28 -24 37 -10 c94 -24 124 -24 139 -2 9 12 26 21 38 21 27 0 51
-24 41 -41 -6 -8 36 -9 166 -4 123 5 187 4 218 -5 36 -9 49 -9 77 5 53 25 135
12 163 -26 20 -26 27 -29 82 -29 62 0 95 11 116 39 9 12 17 13 40 6 34 -13 39
-48 6 -53 -21 -3 -21 -4 -6 -48 10 -30 14 -70 11 -118 -3 -64 -1 -71 11 -58
24 24 79 43 105 36 34 -8 60 -39 53 -63 -4 -15 2 -22 25 -30 16 -6 32 -20 35
-31 4 -15 9 -17 23 -10 31 17 65 11 88 -13 24 -25 29 -76 10 -95 -24 -24 10
-11 67 26 58 37 59 38 61 87 1 28 5 64 9 80 l7 31 -75 18 c-172 40 -288 105
-305 169 -11 42 -101 99 -192 121 -129 33 -377 74 -390 66z"/>
<path d="M7205 2568 c-63 -18 -80 -18 -170 -9 -123 14 -185 14 -205 1 -13 -9
-12 -12 5 -22 45 -26 85 -76 85 -107 0 -40 24 -55 123 -75 84 -17 116 -35 185
-100 41 -40 42 -40 42 -14 0 29 -47 76 -136 135 l-58 38 38 3 c20 2 46 12 57
23 17 17 48 25 89 21 8 -1 41 -4 73 -7 31 -2 71 -12 87 -20 34 -18 40 -30 10
-22 -17 4 -18 2 -9 -14 9 -17 17 -19 55 -13 35 5 49 3 64 -11 41 -37 17 -129
-46 -185 -32 -28 -33 -30 -14 -40 25 -14 26 -46 1 -60 -29 -15 -71 21 -55 48
10 15 8 21 -8 31 -19 12 -19 13 6 58 33 58 33 63 -4 63 -29 0 -30 -1 -24 -42
7 -58 -12 -90 -60 -103 -45 -13 -64 -40 -47 -66 14 -24 14 -62 -1 -77 -35 -35
144 14 226 62 23 13 59 29 81 36 22 7 45 17 52 22 19 15 80 131 88 168 6 28 5
32 -10 27 -25 -10 -55 10 -55 38 0 25 30 42 51 30 20 -13 -29 70 -58 97 -34
32 -79 51 -104 43 -10 -3 -44 8 -79 25 -81 41 -173 47 -275 18z"/>
<path d="M7805 2510 c-3 -10 0 -30 7 -42 7 -13 15 -45 18 -72 9 -86 56 -82
105 8 18 32 17 34 -4 55 -11 11 -21 27 -21 34 0 34 -95 50 -105 17z"/>
<path d="M4990 2507 c0 -18 62 -97 102 -132 77 -66 323 -168 397 -164 9 0 -24
11 -74 24 -49 13 -106 31 -125 39 l-35 15 35 1 c19 0 63 -10 97 -22 l62 -23
73 19 c40 10 78 21 85 23 7 3 15 -7 19 -21 3 -14 22 -35 42 -47 l37 -23 -30
-6 c-17 -4 32 -9 115 -13 168 -8 450 -14 450 -9 0 2 -7 16 -15 31 -18 35 -69
80 -98 85 -134 26 -218 39 -248 37 -53 -3 -240 27 -312 49 -35 11 -76 19 -92
19 -17 0 -68 7 -115 15 -91 17 -129 12 -201 -24 -35 -18 -35 -18 -68 7 -17 14
-47 48 -66 76 -19 29 -35 48 -35 44z"/>
<path d="M6793 2103 c-10 -3 -10 -10 -2 -26 10 -17 8 -24 -10 -38 -12 -10 -22
-22 -23 -26 -2 -18 -263 -203 -287 -203 -6 0 -11 -5 -11 -11 0 -5 -4 -8 -8 -5
-5 3 -9 -1 -9 -9 0 -10 6 -9 25 6 41 31 114 19 151 -25 20 -23 34 -19 20 5
-24 45 11 78 120 114 30 10 68 26 85 35 17 10 49 21 71 25 37 7 38 8 18 18
-13 5 -28 24 -34 41 -9 25 -17 31 -42 32 -34 1 -60 29 -53 57 2 9 3 17 3 16
-1 0 -8 -3 -14 -6z"/>
<path d="M6421 1737 c-7 -10 -25 -17 -40 -17 -14 0 -46 -14 -70 -30 -24 -17
-54 -30 -66 -30 -11 0 -26 -5 -32 -11 -6 -6 -17 -12 -24 -13 -14 -3 -52 -17
-101 -39 -16 -7 -28 -15 -28 -18 0 -3 -6 -6 -14 -6 -26 0 -108 -44 -131 -71
-21 -25 -26 -26 -54 -15 -19 7 -31 7 -31 2 0 -6 -4 -7 -10 -4 -5 3 -10 1 -10
-6 0 -7 -3 -10 -6 -6 -3 3 -56 -12 -117 -33 -61 -22 -113 -38 -116 -36 -3 1
-14 -5 -23 -15 -17 -18 -16 -19 8 -25 18 -5 44 1 78 16 28 12 104 35 170 51
124 30 200 65 247 112 l28 28 40 -21 c26 -13 60 -20 97 -20 48 0 62 5 97 32
37 29 45 32 104 30 36 -2 73 0 84 3 24 8 25 32 0 40 -29 9 -54 42 -60 82 -5
32 -8 34 -20 20z"/>
<path d="M2631 1671 c-117 -47 -179 -92 -211 -153 -20 -37 -29 -46 -45 -42
-22 5 -183 -95 -220 -136 l-20 -23 60 7 c33 3 66 2 73 -3 10 -6 43 21 115 94
56 56 157 143 225 194 67 50 122 94 122 96 0 6 8 9 -99 -34z"/>
<path d="M1962 1595 c-50 -24 -75 -42 -82 -59 -11 -30 -54 -60 -75 -52 -9 3
-29 -8 -50 -29 -19 -19 -38 -35 -43 -35 -5 0 -15 -7 -22 -15 -7 -9 -19 -13
-27 -11 -8 3 -31 -3 -51 -13 -20 -10 -49 -21 -64 -25 -14 -3 -40 -17 -56 -31
-17 -14 -42 -25 -56 -25 -75 0 -233 -127 -282 -226 -21 -43 -26 -64 -22 -103
4 -37 0 -54 -13 -72 -30 -39 -25 -102 12 -143 39 -45 79 -53 166 -33 38 9 114
18 169 21 88 5 108 3 145 -14 48 -21 101 -25 164 -10 22 5 92 13 155 19 63 5
131 17 151 25 33 14 38 13 85 -10 29 -14 83 -28 134 -35 47 -6 99 -15 116 -20
47 -14 67 -11 166 21 50 16 110 30 133 30 65 0 139 29 121 47 -4 5 -83 8 -174
9 -92 1 -196 4 -232 9 -53 6 -83 3 -154 -15 -91 -23 -127 -21 -159 8 -12 10
-32 15 -55 13 -51 -3 -77 25 -69 73 5 32 3 35 -26 42 -58 14 -58 14 -47 -7 6
-10 15 -19 20 -19 8 0 3 -58 -6 -69 -2 -2 -94 -5 -205 -6 l-201 -2 54 27 c29
15 68 31 86 34 l32 8 -20 25 c-11 15 -18 34 -15 44 7 20 -31 53 -81 69 -36 12
-51 42 -41 80 6 25 2 25 -30 0 -29 -22 -92 -27 -111 -8 -7 7 -12 21 -12 33 0
26 45 75 70 75 11 0 24 9 30 21 26 48 152 67 190 29 11 -11 20 -28 20 -37 1
-12 6 -8 17 12 8 17 33 51 54 77 32 39 36 47 21 50 -17 3 136 116 208 153 19
10 52 29 73 42 l38 24 -24 20 c-33 26 -41 25 -125 -16z m-450 -662 c50 -45
-24 -150 -91 -128 -61 19 -15 145 53 145 11 0 28 -7 38 -17z"/>
<path d="M1894 1297 c-56 -61 -75 -89 -88 -129 -4 -14 -16 -18 -50 -18 -36 0
-46 4 -51 21 -6 19 -8 19 -20 3 -18 -25 -1 -59 42 -84 29 -17 35 -28 32 -57
-1 -8 28 -21 49 -22 6 -1 12 7 12 17 0 10 5 23 12 30 7 7 12 33 13 59 0 42 4
50 31 68 41 26 100 136 87 159 -8 15 -18 9 -69 -47z"/>
<path d="M1120 1164 c0 -38 -50 -84 -93 -84 -19 0 -40 7 -47 15 -7 8 -18 15
-24 15 -6 0 -43 -30 -82 -68 -39 -37 -89 -79 -111 -93 -46 -31 -73 -81 -73
-138 0 -37 3 -42 34 -55 19 -8 37 -23 41 -35 4 -13 20 -24 43 -31 48 -13 51
-13 68 5 21 21 60 19 76 -4 12 -17 17 -18 45 -6 43 18 52 51 21 82 -26 25
-158 72 -138 48 15 -18 -7 -64 -36 -71 -38 -10 -59 -1 -62 27 -4 33 21 59 56
60 17 1 21 3 10 6 -30 8 -20 30 27 57 25 15 55 40 67 56 12 16 48 51 80 76 49
40 138 142 138 159 0 3 -9 5 -20 5 -15 0 -20 -7 -20 -26z"/>
<path d="M7358 4213 c-22 -26 -42 -69 -68 -148 -32 -95 -62 -125 -130 -125
-46 0 -56 -4 -86 -34 -19 -19 -37 -48 -40 -65 -4 -17 -9 -31 -13 -31 -3 0 -19
19 -35 41 -20 29 -34 39 -50 37 -18 -3 -21 -10 -21 -45 0 -47 -25 -86 -50 -77
-11 5 -15 -1 -15 -26 0 -27 -3 -31 -17 -25 -68 28 -71 29 -96 12 -24 -16 -25
-15 -37 12 -14 34 -57 76 -86 85 -27 8 -94 -14 -214 -72 -52 -25 -104 -45
-115 -45 -11 1 -14 -1 -7 -4 9 -3 -1 -14 -27 -30 -23 -13 -45 -22 -50 -18 -5
3 -13 0 -17 -6 -5 -8 -2 -10 7 -4 8 4 1 -4 -15 -17 -24 -21 -29 -32 -29 -69 2
-90 77 -249 155 -327 40 -41 46 -44 86 -39 64 7 408 183 434 221 13 18 9 45
-12 89 -11 23 -16 43 -11 45 6 2 25 15 44 30 32 26 33 29 19 50 -19 29 -13 34
25 20 59 -22 105 22 89 85 -3 13 -17 41 -31 61 -27 39 -30 76 -8 83 7 3 27
-16 45 -41 17 -25 35 -46 40 -46 4 0 12 19 18 42 7 22 24 54 40 70 23 23 37
28 77 28 80 0 110 28 148 142 41 122 83 169 120 138 23 -19 18 -57 -15 -102
-37 -51 -36 -82 2 -86 37 -4 63 12 98 60 32 44 68 74 77 64 3 -3 -2 -17 -11
-30 -23 -36 -20 -55 12 -62 15 -4 29 -10 32 -14 3 -4 42 -12 88 -17 91 -12
123 -28 152 -76 11 -18 20 -27 20 -20 0 18 -49 72 -79 88 -15 7 -56 17 -92 21
-35 4 -73 13 -84 20 -11 8 -27 14 -37 14 -22 0 -23 10 -3 36 21 28 19 54 -5
54 -22 0 -46 -22 -93 -83 -29 -39 -71 -57 -90 -38 -8 8 -1 25 26 64 20 29 37
63 37 74 0 46 -71 71 -102 36z m-722 -421 c26 -20 48 -62 63 -119 6 -23 34
-75 61 -115 27 -41 52 -88 56 -105 6 -29 3 -34 -42 -62 -46 -29 -317 -171
-327 -171 -3 0 -8 15 -11 34 -4 22 -26 54 -66 95 -52 54 -62 71 -85 147 -17
55 -35 95 -51 109 l-25 23 63 35 c150 83 288 145 328 146 8 0 25 -7 36 -17z
m-421 -277 c14 -13 25 -34 25 -46 0 -36 38 -85 90 -119 82 -53 112 -109 75
-140 -36 -30 -98 23 -164 141 -28 50 -71 159 -71 181 0 15 21 8 45 -17z"/>
<path d="M2010 5499 c-141 -17 -211 -57 -279 -162 -22 -34 -47 -71 -55 -83 -9
-13 -39 -28 -76 -38 -34 -10 -89 -30 -123 -45 -34 -16 -84 -38 -112 -50 -86
-39 -194 -90 -381 -181 -250 -122 -276 -154 -291 -370 -10 -125 6 -307 32
-364 19 -44 114 -147 217 -237 67 -57 113 -78 208 -94 51 -9 74 -27 108 -87
75 -133 147 -163 387 -161 205 1 292 24 368 98 54 53 76 132 81 305 2 52 4
105 5 117 1 16 27 37 102 83 76 47 108 73 129 106 27 44 31 56 68 214 15 62
34 108 71 169 70 116 81 158 88 341 6 172 -9 273 -47 336 -27 43 -91 81 -157
93 -78 15 -259 20 -343 10z m224 -277 c42 -25 68 -64 68 -106 0 -44 -42 -135
-111 -240 -28 -44 -54 -91 -56 -105 -3 -14 -9 -38 -14 -52 -6 -19 -3 -37 10
-64 23 -47 25 -85 4 -85 -8 0 -22 -8 -32 -18 -32 -33 -106 -78 -233 -142 -69
-35 -127 -65 -129 -67 -2 -1 8 -36 23 -75 43 -113 45 -119 60 -188 12 -51 13
-69 3 -90 -18 -37 -99 -87 -162 -100 -86 -18 -106 -2 -182 145 -34 66 -64 124
-66 129 -6 17 -68 -16 -78 -42 -8 -20 -14 -23 -36 -17 -37 9 -136 92 -261 218
l-103 103 16 75 c10 41 24 81 33 91 16 15 110 61 492 237 85 39 184 86 220
104 52 25 78 32 130 33 l65 1 31 73 c30 74 85 147 130 177 54 35 122 36 178 5z"/>
<path d="M2105 5205 c-58 -20 -115 -89 -156 -186 l-34 -84 -76 0 c-52 0 -82
-5 -99 -16 -14 -9 -61 -32 -105 -51 -44 -19 -203 -92 -352 -163 l-273 -129
-14 -46 c-31 -99 -38 -84 96 -213 68 -65 137 -128 153 -139 17 -10 -32 41
-109 115 -76 74 -135 137 -130 139 5 3 27 11 49 18 22 7 119 48 216 91 98 43
211 92 253 109 213 84 375 183 376 228 1 13 7 10 26 -12 18 -20 24 -36 20 -52
-12 -47 51 -124 99 -124 24 0 35 -17 35 -55 0 -57 -27 -78 -244 -191 l-146
-76 -31 69 c-17 37 -34 75 -38 83 -12 22 -120 15 -182 -11 -51 -22 -99 -69
-99 -96 0 -8 8 -27 18 -41 18 -26 62 -127 62 -141 0 -4 -27 -20 -60 -36 -33
-16 -58 -30 -56 -32 2 -3 32 10 66 27 l61 31 61 -128 c33 -70 69 -138 81 -150
23 -26 59 -29 118 -12 37 12 109 63 109 78 0 5 -15 -6 -34 -23 -53 -50 -159
-73 -186 -41 -36 43 -190 387 -190 424 0 28 104 78 197 95 l33 5 51 -107 c29
-59 64 -141 80 -182 15 -41 28 -69 29 -62 0 7 -19 62 -41 123 -23 60 -40 111
-38 113 2 1 68 36 147 77 230 119 273 162 243 246 -10 25 -10 38 -2 46 6 6 11
22 11 34 0 30 20 68 82 161 59 87 88 152 88 197 0 25 -8 40 -35 64 -20 17 -42
31 -50 31 -7 0 -19 2 -27 5 -7 2 -31 -2 -53 -10z m107 -27 c14 -5 32 -22 38
-38 16 -38 -15 -114 -100 -242 l-64 -96 -29 24 c-23 19 -36 23 -61 19 -29 -6
-34 -3 -58 34 -16 25 -23 43 -16 47 5 4 28 45 50 93 45 98 76 136 133 162 39
18 54 18 107 -3z m-337 -269 c31 -49 -96 -136 -345 -237 -96 -39 -245 -102
-330 -140 -85 -39 -167 -73 -182 -77 l-28 -7 16 53 c17 56 30 79 46 79 10 0
96 40 498 228 177 84 245 111 277 111 23 1 45 -4 48 -10z"/>
<path d="M1813 4724 c-24 -14 -43 -30 -43 -35 0 -16 54 -90 89 -124 l32 -30
37 20 c20 11 38 27 40 36 3 18 -87 159 -103 159 -5 0 -29 -12 -52 -26z"/>
<path d="M2858 2990 c-27 -16 -41 -74 -28 -115 14 -43 35 -55 93 -55 59 0 87
29 87 91 0 61 -29 89 -91 89 -24 0 -52 -5 -61 -10z"/>
</g>
</svg>
